PathFileType	4	(X/Y/Z)	C:/Users/beibeiliu/ov580/test_trc\sequence.12_training_dense_right.trc
DataRate	CameraRate	NumFrames	NumMarkers	Units	OrigDataRate	OrigDataStartFrame	OrigNumFrames
120	120	25	19	mm	120	26	76
Frame#	Time	ThumbCMC			ThumbMCP			ThumbIP			ThumbTip			IndexMCP			IndexPIP			IndexTip			MiddleMCP			MiddlePIP			MiddleTip			RingMCP			RingPIP			RingTip			PinkyMCP			PinkyPIP			PinkyTip			BackHand1			BackHand2			BackHand3	
		X0	Y0	Z0	X1	Y1	Z1	X2	Y2	Z2	X3	Y3	Z3	X4	Y4	Z4	X5	Y5	Z5	X6	Y6	Z6	X7	Y7	Z7	X8	Y8	Z8	X9	Y9	Z9	X10	Y10	Z10	X11	Y11	Z11	X12	Y12	Z12	X13	Y13	Z13	X14	Y14	Z14	X15	Y15	Z15	X16	Y16	Z16	X17	Y17	Z17	X18	Y18	Z18	
25	0.208333	189.922	17.5613	136.972	172.187	20.1867	108.135	167.861	20.2083	84.5885	166.634	9.39096	59.4861	227.373	-7.54525	85.0726	218.666	-5.08336	56.2379	196.361	-1.00856	36.8868	218.222	-29.3322	76.3006	203.495	-23.8403	51.6133	170.642	-4.00215	42.9615	210.203	-48.8565	81.9459	202.778	-45.2645	51.5731	188.473	-33.1473	34.738	196.928	-65.5215	96.7387	197.711	-72.9223	74.0168	196.073	-75.5021	45.6969	202.911	-46.956	139.829	194.628	-42.443	165.841	213.279	-15.9219	152.219	
26	0.216667	187.674	15.6243	138.836	170.923	21.4792	111.614	165.191	26.4212	85.1702	162.659	17.166	59.7305	222.613	-3.84449	83.3513	213.04	-3.2823	55.5777	190.959	7.23928	36.2619	215.505	-25.1713	77.8748	196.822	-19.3737	48.5435	168.877	-7.18569	40.2578	208.309	-43.5972	77.7204	197.882	-39.4603	50.2548	176.324	-29.0445	31.5009	193.07	-63.8703	92.9367	195.115	-65.3763	67.9051	189.218	-66.1187	42.7991	202.427	-42.9558	134.343	192.571	-42.6614	162.465	212.768	-15.0767	151.783	
27	0.225	187.391	18.4614	141.755	168.437	24.0979	112.562	163.818	24.9987	80.9812	159.14	19.3244	60.4789	219.743	-6.48747	79.5433	210.852	-1.12889	54.2201	187.427	7.54668	35.0246	213.377	-25.4581	75.3059	197.112	-21.1866	47.355	168.541	-2.89968	36.4621	203.397	-46.2102	81.4252	195.501	-39.6028	51.3367	171.822	-29.2712	32.4151	190.823	-61.9969	93.4717	187.765	-69.7744	69.2023	185.074	-63.2772	39.4739	202.146	-44.8124	132.367	195.337	-40.1182	165.415	213.6	-15.6807	146.348	
28	0.233333	186.187	16.8317	137.964	167.144	21.7102	107.771	160.414	22.1787	84.1661	155.753	16.1942	59.765	219.742	-3.98047	76.2449	209.842	-0.0255963	52.5131	183.825	7.62176	33.1923	212.78	-26.3942	73.4214	200.226	-21.0789	47.2679	170.99	-7.46687	31.871	202.158	-44.7739	77.0852	191.713	-42.6357	50.3998	171.671	-28.8946	33.6176	188.404	-60.6121	91.9508	186.561	-66.9488	66.6389	178.994	-67.9923	41.7943	201.515	-42.639	133.962	193.106	-40.9891	163.904	213.61	-12.6989	144.414	
29	0.241667	183.21	16.8183	139.175	161.768	21.8969	110.352	153.922	23.5103	80.5737	151.138	9.88684	58.1841	216.166	-6.34462	74.8531	209.19	-1.99897	51.5194	188.114	3.09336	32.3457	212.419	-29.0302	72.515	199.765	-25.3391	44.5958	175.339	-9.20557	26.3445	198.532	-45.1169	79.0273	188.479	-40.899	48.772	167.89	-25.3379	32.5505	185.3	-58.834	92.3684	182.063	-66.8515	65.0538	174.503	-68.7562	41.6051	199.109	-42.3984	131.473	191.437	-41.2404	162.643	209.719	-9.988	146.838	
30	0.25	182.115	17.7659	135.343	160	20.8095	106.687	151.154	18.3981	82.0759	147.34	6.84097	61.464	218.368	-3.76676	77.7679	208.723	-5.51468	50.1572	192.01	-1.01284	30.3895	212.396	-30.0155	74.4848	203.555	-28.659	43.5597	179.939	-17.8073	23.9564	197.442	-45.8619	76.6626	186.946	-39.8993	49.1813	159.687	-24.3772	35.5385	184.051	-57.48	90.2604	181.385	-62.4078	64.7523	174.008	-65.3704	41.5062	195.878	-42.9027	132.172	189.737	-38.651	159.518	208.545	-11.7138	146.347	
31	0.258333	179.097	18.1519	134.642	156.877	19.0387	102.06	148.923	15.3197	78.6357	144.149	1.82618	56.1676	215.623	-7.3486	78.9638	209.91	-4.79282	47.6746	190.32	-3.47079	26.8265	212.346	-31.4935	73.142	203.614	-32.0754	44.0145	180.469	-18.6322	20.3078	195.428	-43.9276	74.5595	180.332	-40.1123	48.63	159.663	-21.9896	39.147	180.507	-59.4027	90.2635	178.088	-63.0827	66.0221	172.268	-64.1487	39.74	195.345	-39.8909	130.332	190.441	-35.3445	161.413	205.178	-12.8462	143.875	
32	0.266667	174.727	24.7135	134.83	152.113	23.1598	100.179	144.081	17.9931	73.9059	140.781	0.684045	55.3419	212.626	-0.887816	76.7969	206.315	3.27626	43.4188	188.444	3.04017	25.8265	208.717	-24.5593	73.8201	201.418	-24.2927	40.6273	174.63	-19.8146	20.4422	192.967	-40.3411	74.3452	178.203	-36.2991	47.6232	149.248	-19.7267	41.9412	180.541	-54.9157	89.5417	174.072	-64.4094	65.4077	166.998	-62.8254	36.8835	194.775	-38.5684	129.967	187.29	-35.1291	156.807	204.15	-8.3968	138.292	
33	0.275	170.494	24.8155	132.628	146.489	26.3269	104.766	137.251	20.0242	77.9881	135.293	3.55179	54.2858	208.675	6.86499	69.6813	201.2	6.14638	43.1479	179.794	3.23048	23.7625	202.914	-22.5693	71.4646	195.436	-21.8417	38.8506	169.812	-15.3688	20.3038	189.484	-38.4526	69.0714	172.237	-35.374	45.8977	144.75	-21.9407	43.2025	179.531	-54.1248	85.3226	172.986	-61.8705	63.4747	163.226	-65.8719	35.3035	196.309	-33.8986	127.5	190.127	-29.5003	153.07	201.513	0.609246	138.822	
34	0.283333	168.542	24.8788	130.025	143.951	27.2025	101.539	136.057	19.6913	80.5649	131.535	5.7561	54.6777	203.007	5.50734	69.9935	195.768	10.9303	38.5299	176.665	7.87276	21.9333	202.762	-14.5807	64.6729	191.588	-17.517	37.9645	160.355	-11.5157	20.2505	188.612	-33.0938	69.1505	171.089	-33.3154	46.2616	141.031	-14.416	41.9506	177.721	-51.1488	83.6062	169.896	-59.3846	61.2569	162.566	-61.457	36.3987	191.93	-32.0343	126.599	187.896	-26.7872	154.522	200.09	1.52166	134.355	
35	0.291667	165.472	27.2818	134.503	141.18	29.2225	102.047	130.567	25.8146	78.9493	129.694	6.72807	60.3892	201.864	13.8518	67.1921	192.519	11.1315	42.7242	173.869	13.8226	21.7726	199.5	-12.8124	63.0351	186.234	-13.8123	35.7643	155.994	-10.2778	21.5172	185.363	-32.0847	69.9687	167.24	-25.5746	43.1317	135.575	-13.2416	42.7082	176.703	-48.2964	80.2604	169.197	-53.7841	62.3705	157.785	-57.5392	35.8847	193.759	-26.3868	124.806	187.123	-25.3495	155.785	198.195	1.38439	135.481	
36	0.3	162.55	28.3254	133.142	137.217	30.1122	109.256	127.092	26.3563	78.4688	124.693	8.85975	61.7855	196.648	12.8845	70.1271	189.8	17.831	42.9293	169.401	14.291	24.0112	195.286	-6.45815	64.2561	181.919	-9.73108	38.1603	150.62	-1.31864	21.4308	182.111	-27.4182	70.3451	161.387	-23.3492	44.3811	133.038	-8.93111	45.5586	171.039	-46.8621	84.6613	162.937	-53.7382	56.656	156.41	-54.3145	37.6479	188.107	-24.9897	124.474	186.536	-23.7752	150.84	194.103	3.79056	138.985	
37	0.308333	156.187	29.352	139.915	130.679	35.4465	112.621	120.156	30.3894	81.7023	118.998	9.9764	65.4433	189.829	18.1219	73.7968	184.804	19.3629	45.6595	165.825	24.3428	23.1376	189.543	-5.70817	66.2148	175.445	-8.38259	38.445	143.697	-1.15143	24.618	177.468	-24.4529	71.0126	155.357	-18.9365	45.1341	129.457	-4.73345	47.455	165.571	-44.8629	82.588	157.455	-49.3745	57.2525	148.119	-48.2554	34.0416	184.511	-24.3777	126.157	182.135	-26.1446	151.32	189.735	5.99979	134.722	
38	0.316667	154.671	30.3385	141.907	129.097	34.7163	114.501	118.384	29.9992	84.9479	115.012	12.364	69.1615	188.326	19.123	71.5938	182.937	23.815	44.855	163.24	24.1874	23.5236	185.836	-7.87455	68.7271	174.776	-4.79313	39.7589	142.828	3.19763	24.0221	173.478	-21.8461	68.0794	153.931	-21.0939	47.1425	125.607	-3.20607	49.8946	163.44	-42.4094	84.9604	155.423	-49.1793	62.8696	146.175	-47.4933	38.2659	180.358	-23.5452	126.269	180.11	-23.101	151.906	188.813	4.86563	136.902	
39	0.325	150.345	32.3995	140.54	126.227	29.2924	109.683	116.765	24.2306	85.1935	112.118	10.7841	67.9695	186.099	23.6106	77.4637	184.539	28.0524	47.7856	167.815	28.7264	22.8275	186.578	-1.71916	65.7039	172.035	-3.82754	36.6898	141.383	0.887712	22.7835	170.831	-22.5537	66.0536	150.092	-16.5176	46.1924	120.618	-2.1527	51.1394	165.573	-38.5092	81.6227	157.15	-46.7258	58.1976	146.686	-47.2182	33.8176	180.665	-25.4663	124.152	177.96	-25.7093	154.036	187.709	7.71728	136.474	
40	0.333333	145.142	30.2361	135.729	119.861	24.2887	109.989	109.191	20.1845	84.1196	108.406	7.53477	63.0031	184.395	27.2081	76.1729	182.206	28.262	47.1874	168.143	28.7771	19.1289	183.595	-2.33709	66.5106	172.987	-0.539835	38.9223	142.975	0.778906	19.1451	169.413	-20.9947	68.8513	148.028	-15.6815	45.8668	117.576	-8.06764	47.9703	166.82	-41.0299	80.2712	160.882	-45.832	56.2805	154.98	-48.8171	32.7603	180.796	-20.3232	122.489	179.168	-22.9574	152.139	181.567	7.44276	136.474	
41	0.341667	138.054	22.1157	134.275	112.301	15.1068	108.784	105.656	8.64445	80.3437	101.14	0.302893	56.6734	180.359	28.4888	75.8139	179.65	30.1505	46.93	172.028	30.9801	22.375	181.007	0.470546	62.5869	168.586	-3.9599	36.407	140.186	-5.23231	16.9811	167.728	-20.8815	64.1075	148.052	-17.6259	45.5335	112.39	-13.1892	48.1756	168.897	-41.3077	80.8372	165.899	-41.178	53.0132	164.262	-47.8369	32.7114	180.501	-22.885	124.464	174.407	-24.1566	148.762	176.662	9.91891	137.458	
42	0.35	132.15	16.8797	131.535	108	7.57698	106.399	99.2858	2.71662	76.7107	96.2967	-5.03943	52.9664	176.284	24.0095	72.1819	176.032	27.2493	48.8455	171.395	27.7842	22.7416	177.503	-3.30835	62.23	167.559	-5.8312	37.9762	140.904	-7.16567	16.0594	166.075	-18.6396	65.901	144.253	-20.4615	44.1245	115.522	-16.0222	44.054	169.692	-42.5166	79.0724	168.873	-44.2137	56.7883	170.492	-45.6522	31.1611	177.257	-23.606	124.392	171.239	-26.9999	148.587	171.167	7.89951	134.15	
43	0.358333	127.833	15.1138	130.465	108.676	1.55893	103.382	100.343	-2.92905	76.9652	99.3862	-10.7383	55.0985	175.322	21.5167	77.2059	176.903	30.2013	45.6858	173.908	28.4835	23.2222	177.569	-2.22007	67.702	168.474	-2.34964	36.7174	145.571	-7.30094	16.7117	170.658	-21.0277	67.1634	146.447	-22.1649	43.2884	117.7	-25.0704	43.0829	174.83	-42.3319	77.3423	172.739	-40.591	55.7349	175.434	-43.9028	31.9756	177.472	-23.7113	125.202	171.961	-26.9851	149.752	168.825	2.81354	138.135	
44	0.366667	132.009	12.6059	126.396	112.691	2.56131	101.191	106.762	-2.84565	74.0492	108.283	-11.2292	50.3435	179.908	31.1135	74.1273	180.43	36.319	49.7945	178.639	30.4767	21.1403	184.412	6.36764	65.3207	176.885	0.890056	35.8404	153.258	-3.96282	14.6995	178.061	-15.2117	63.1717	156.644	-17.7609	41.0866	128.002	-23.33	40.8409	181.932	-31.8725	77.7889	183.07	-35.231	52.8266	185.255	-32.4682	30.9234	185.912	-17.9583	121.702	173.654	-24.0153	152.082	169.839	9.51807	138.586	
45	0.375	132.126	10.5045	125.579	117.408	-2.58868	94.9495	113.483	-7.32527	67.402	119.228	-15.2394	43.6023	176.609	37.1268	78.3584	175.733	46.332	49.6386	173.17	41.6252	19.6687	187.101	20.1445	67.1709	182.289	17.0655	38.4817	161.577	1.54871	14.251	186.202	-2.81054	68.267	167.726	-11.8138	41.298	139.532	-23.1538	39.2797	197.205	-21.7826	76.4376	195.496	-20.6124	56.8987	201.227	-23.5277	29.6125	188.923	-5.34642	123.952	183.51	-16.415	153.178	169.357	19.6401	135.896	
46	0.383333	123.39	3.28695	124.149	117.506	-16.4288	96.491	115.934	-25.4374	66.0744	124.516	-31.711	49.4529	156.195	39.5072	72.6242	158.371	41.8558	44.0556	156.29	33.9906	13.8072	176.236	23.4817	64.83	171.471	17.7369	33.9116	157.564	-3.79439	13.1899	181.95	2.04502	66.5495	166.366	-15.2332	42.1632	142.061	-35.1623	45.9952	201.55	-11.684	77.2428	201.881	-14.745	51.3442	199.399	-14.4064	29.3567	189.442	2.16302	118.916	184.555	-2.81403	148.241	162.111	21.068	133.367	
47	0.391667	114.037	-2.93262	128.919	101.794	-28.8812	102.389	101.546	-42.8774	77.9977	117.039	-52.1767	59.1065	134.998	22.4739	65.3808	137.527	18.4637	35.0833	132.044	11.2337	11.0695	160.842	6.86769	57.2545	154.05	-6.10306	27.8359	139.219	-30.5011	11.7809	167.625	-13.3394	64.553	152.496	-39.9023	46.9725	130.676	-55.4959	59.937	186.261	-19.8249	78.1116	185.32	-24.7715	53.9646	183.08	-33.7565	30.0587	176.685	2.16567	118.348	170.872	3.37144	148.402	146.265	19.7716	130.341	
48	0.4	101.281	4.52211	130.022	81.3451	-21.5418	113.257	77.3541	-41.4641	89.652	84.7574	-56.822	75.8884	124.302	6.08566	56.236	117.56	2.87996	36.2212	116.72	-9.95371	13.189	142.957	-15.3	55.8832	132.259	-28.3508	31.5835	113.248	-51.2575	16.9058	143.414	-32.0971	64.5215	124.247	-54.1346	55.0157	97.9598	-62.3749	81.2699	160.97	-42.9877	82.1067	158.654	-56.5561	58.9019	146.899	-65.0917	38.2713	162.398	-11.3185	116.686	164.298	-4.00978	141.699	140.705	16.559	123.118	
49	0.408333	112.446	17.8784	126.48	79.9324	3.62499	111.531	63.3538	-9.38819	98.0364	62.2883	-32.7994	83.4976	126.338	-0.324137	58.9255	116.871	-6.24567	31.627	110.517	-15.2792	9.89987	130.831	-23.4783	60.1249	114.019	-42.1922	35.3521	91.7857	-50.7771	21.7628	122.679	-45.4057	68.9595	93.9228	-48.7269	62.0021	70.5318	-39.5758	88.9223	131.822	-54.9793	87.1463	119.581	-70.1359	68.3107	107.961	-76.0295	49.1646	154.054	-27.382	114.112	158.832	-16.5894	140.155	151.79	8.17969	119.206	
